<?xml version="1.0" encoding="UTF-8" standalone="no"?>
<!-- Created with Inkscape (http://www.inkscape.org/) -->

<svg
   xmlns:dc="http://purl.org/dc/elements/1.1/"
   xmlns:cc="http://creativecommons.org/ns#"
   xmlns:rdf="http://www.w3.org/1999/02/22-rdf-syntax-ns#"
   xmlns:svg="http://www.w3.org/2000/svg"
   xmlns="http://www.w3.org/2000/svg"
   xmlns:sodipodi="http://sodipodi.sourceforge.net/DTD/sodipodi-0.dtd"
   xmlns:inkscape="http://www.inkscape.org/namespaces/inkscape"
   width="210mm"
   height="297mm"
   id="svg3049"
   version="1.1"
   inkscape:version="0.48.5 r10040"
   sodipodi:docname="New document 2">
  <defs
     id="defs3" />
  <sodipodi:namedview
     inkscape:document-units="mm"
     id="base"
     pagecolor="#ffffff"
     bordercolor="#666666"
     borderopacity="1.0"
     inkscape:pageopacity="0.0"
     inkscape:pageshadow="2"
     inkscape:zoom="0.49497475"
     inkscape:cx="667.24258"
     inkscape:cy="201.81754"
     inkscape:current-layer="layer1"
     showgrid="false"
     inkscape:snap-bbox="false"
     inkscape:snap-bbox-midpoints="false"
     inkscape:window-width="1920"
     inkscape:window-height="1018"
     inkscape:window-x="-8"
     inkscape:window-y="-8"
     inkscape:window-maximized="1" />
  <metadata
     id="metadata4">
    <rdf:RDF>
      <cc:Work
         rdf:about="">
        <dc:format>image/svg+xml</dc:format>
        <dc:type
           rdf:resource="http://purl.org/dc/dcmitype/StillImage" />
        <dc:title></dc:title>
      </cc:Work>
    </rdf:RDF>
  </metadata>
  <g
     inkscape:label="Layer 1"
     inkscape:groupmode="layer"
     id="layer1">
    <g
       id="g3177">
      <g
         transform="translate(2.4387239,48.303803)"
         id="g3118">
        <rect
           style="fill:#000000;stroke:#000000;stroke-width:1;stroke-linecap:butt;stroke-miterlimit:4;stroke-opacity:1;stroke-dasharray:none"
           id="rect3773"
           width="673.22833"
           height="311.81104"
           x="31.957262"
           y="175.02811"
           rx="53.149605" />
        <rect
           rx="24.80315"
           y="189.20135"
           x="74.684334"
           height="49.6063"
           width="70.866142"
           id="rect3775"
           style="fill:none;stroke:#ffffff;stroke-width:1;stroke-linecap:butt;stroke-miterlimit:4;stroke-opacity:1;stroke-dasharray:none" />
        <rect
           style="fill:#ffffff;stroke:#ffffff;stroke-width:1;stroke-linecap:butt;stroke-miterlimit:4;stroke-opacity:1;stroke-dasharray:none"
           id="rect3771"
           width="342.70081"
           height="199.19685"
           x="184.29703"
           y="-425.92188"
           rx="3.6073771"
           transform="scale(1,-1)" />
        <rect
           style="fill:none;stroke:#ffffff;stroke-width:1;stroke-linecap:butt;stroke-miterlimit:4;stroke-opacity:1;stroke-dasharray:none"
           id="rect3783"
           width="70.866142"
           height="49.6063"
           x="594.62036"
           y="189.20135"
           rx="24.80315" />
        <rect
           style="fill:#ffffff;stroke:#ffffff;stroke-width:1"
           id="rect3144"
           width="42.519684"
           height="14.173228"
           x="99.824631"
           y="724.84924"
           rx="7.0866141"
           transform="matrix(0.70710678,-0.70710678,0.70710678,0.70710678,0,0)" />
        <rect
           transform="matrix(0.70710678,-0.70710678,0.70710678,0.70710678,0,0)"
           rx="7.0866141"
           y="762.4317"
           x="137.40707"
           height="14.173228"
           width="42.519684"
           id="rect3151"
           style="fill:#ffffff;stroke:#ffffff;stroke-width:1" />
        <path
           style="fill:#ffffff;stroke:#ffffff;stroke-width:1"
           d="m 95.470779,262.3288 c -2.94449,0 -5.3125,2.36801 -5.3125,5.3125 l 0,15.9375 c 0,3.91382 -3.17993,7.09375 -7.09375,7.09375 l -15.937504,0 c -2.94449,0 -5.3125,2.39926 -5.3125,5.34375 l 0,23.03125 c 0,2.94449 2.36801,5.3125 5.3125,5.3125 l 15.937504,0 c 3.91382,0 7.09375,3.17993 7.09375,7.09375 l 0,15.9375 c 0,2.94449 2.36801,5.3125 5.3125,5.3125 l 23.031251,0 c 2.94449,0 5.3125,-2.36801 5.3125,-5.3125 l 0,-15.9375 c 0,-3.91382 3.17993,-7.09375 7.09375,-7.09375 l 15.93749,0 c 2.94449,0 5.3125,-2.36801 5.3125,-5.3125 l 0,-23.03125 c 0,-2.94449 -2.36801,-5.34375 -5.3125,-5.34375 l -15.93749,0 c -3.91382,0 -7.09375,-3.17993 -7.09375,-7.09375 l 0,-15.9375 c 0,-2.94449 -2.36801,-5.3125 -5.3125,-5.3125 l -23.031251,0 z"
           id="path3206"
           inkscape:connector-curvature="0" />
        <path
           sodipodi:type="arc"
           style="fill:#ffffff;stroke:#ffffff;stroke-width:1.18571568;stroke-linecap:butt;stroke-miterlimit:4;stroke-opacity:1;stroke-dasharray:none"
           id="path3797"
           sodipodi:cx="48.992397"
           sodipodi:cy="1136.2048"
           sodipodi:rx="21.718279"
           sodipodi:ry="21.213203"
           d="m 70.710676,1136.2048 c 0,11.7158 -9.723604,21.2132 -21.718279,21.2132 -11.994674,0 -21.718279,-9.4974 -21.718279,-21.2132 0,-11.7157 9.723605,-21.2132 21.718279,-21.2132 11.994675,0 21.718279,9.4975 21.718279,21.2132 z"
           transform="matrix(0.83350814,0,0,0.85335354,541.08107,-662.06812)" />
        <path
           sodipodi:type="arc"
           style="fill:#ffffff;stroke:#ffffff;stroke-width:1.18571568;stroke-linecap:butt;stroke-miterlimit:4;stroke-opacity:1;stroke-dasharray:none"
           id="path3797-4"
           sodipodi:cx="48.992397"
           sodipodi:cy="1136.2048"
           sodipodi:rx="21.718279"
           sodipodi:ry="21.213203"
           d="m 70.710676,1136.2048 c 0,11.7158 -9.723604,21.2132 -21.718279,21.2132 -11.994674,0 -21.718279,-9.4974 -21.718279,-21.2132 0,-11.7157 9.723605,-21.2132 21.718279,-21.2132 11.994675,0 21.718279,9.4975 21.718279,21.2132 z"
           transform="matrix(0.83350814,0,0,0.85335354,636.75037,-662.06812)" />
        <path
           sodipodi:type="arc"
           style="fill:#ffffff;stroke:#ffffff;stroke-width:1.18571568;stroke-linecap:butt;stroke-miterlimit:4;stroke-opacity:1;stroke-dasharray:none"
           id="path3797-48"
           sodipodi:cx="48.992397"
           sodipodi:cy="1136.2048"
           sodipodi:rx="21.718279"
           sodipodi:ry="21.213203"
           d="m 70.710676,1136.2048 c 0,11.7158 -9.723604,21.2132 -21.718279,21.2132 -11.994674,0 -21.718279,-9.4974 -21.718279,-21.2132 0,-11.7157 9.723605,-21.2132 21.718279,-21.2132 11.994675,0 21.718279,9.4975 21.718279,21.2132 z"
           transform="matrix(0.83350814,0,0,0.85335354,588.91572,-624.86339)" />
        <path
           transform="matrix(0.83350814,0,0,0.85335354,588.91572,-699.27284)"
           d="m 70.710676,1136.2048 c 0,11.7158 -9.723604,21.2132 -21.718279,21.2132 -11.994674,0 -21.718279,-9.4974 -21.718279,-21.2132 0,-11.7157 9.723605,-21.2132 21.718279,-21.2132 11.994675,0 21.718279,9.4975 21.718279,21.2132 z"
           sodipodi:ry="21.213203"
           sodipodi:rx="21.718279"
           sodipodi:cy="1136.2048"
           sodipodi:cx="48.992397"
           id="path3136"
           style="fill:#ffffff;stroke:#ffffff;stroke-width:1.18571568;stroke-linecap:butt;stroke-miterlimit:4;stroke-opacity:1;stroke-dasharray:none"
           sodipodi:type="arc" />
        <path
           id="path3002"
           style="fill:#ffffff;stroke:#000000;stroke-width:1px;stroke-linecap:butt;stroke-linejoin:miter;stroke-opacity:1"
           d="m 667.58593,307.5163 20,0 m -10,10 0,-20"
           inkscape:connector-curvature="0" />
        <path
           d="m 619.75128,270.31158 20,0 m -10,10 0,-20"
           style="fill:#ffffff;stroke:#000000;stroke-width:1px;stroke-linecap:butt;stroke-linejoin:miter;stroke-opacity:1"
           id="path3009"
           inkscape:connector-curvature="0" />
        <path
           id="path3013"
           style="fill:#ffffff;stroke:#000000;stroke-width:1px;stroke-linecap:butt;stroke-linejoin:miter;stroke-opacity:1"
           d="m 619.75128,344.72103 20,0 m -10,10 0,-20"
           inkscape:connector-curvature="0" />
        <path
           inkscape:connector-curvature="0"
           d="m 571.91663,307.5163 20,0 m -10,10 0,-20"
           style="fill:#ffffff;stroke:#000000;stroke-width:1px;stroke-linecap:butt;stroke-linejoin:miter;stroke-opacity:1"
           id="path3015" />
        <path
           sodipodi:type="arc"
           style="fill:#ffffff;stroke:#ffffff;stroke-width:1.02048099;stroke-linecap:butt;stroke-linejoin:miter;stroke-miterlimit:4;stroke-opacity:1;stroke-dasharray:none;stroke-dashoffset:0"
           id="path3219"
           sodipodi:cx="117.43024"
           sodipodi:cy="572.53973"
           sodipodi:rx="34.092648"
           sodipodi:ry="31.819805"
           d="m 151.52288,572.53973 c 0,17.5736 -15.26379,31.81981 -34.09264,31.81981 -18.828853,0 -34.092651,-14.24621 -34.092651,-31.81981 0,-17.57359 15.263798,-31.8198 34.092651,-31.8198 18.82885,0 34.09264,14.24621 34.09264,31.8198 z"
           transform="matrix(0.94670238,0,0,1.014324,8.7112005,-163.96417)" />
        <path
           id="path3027"
           style="fill:none;stroke:#000000;stroke-width:1px;stroke-linecap:butt;stroke-linejoin:miter;stroke-opacity:1"
           d="m 109.88269,416.77663 20,0 m -10,10 0,-20"
           inkscape:connector-curvature="0" />
      </g>
      <text
         sodipodi:linespacing="125%"
         id="text3173"
         y="517.06628"
         x="319.35098"
         style="font-size:22px;font-style:normal;font-weight:normal;line-height:125%;letter-spacing:0px;word-spacing:0px;fill:#ffffff;fill-opacity:1;stroke:none;font-family:Sans"
         xml:space="preserve"><tspan
           y="517.06628"
           x="319.35098"
           id="tspan3175"
           sodipodi:role="line">PortablePi </tspan></text>
    </g>
    <g
       id="g3199"
       transform="matrix(1,0,0,-1,2.0203051,1083.744)">
      <g
         id="g3201"
         transform="translate(2.4387239,48.303803)">
        <rect
           rx="53.149605"
           y="175.02811"
           x="31.957262"
           height="311.81104"
           width="673.22833"
           id="rect3203"
           style="fill:#000000;stroke:#000000;stroke-width:1;stroke-linecap:butt;stroke-miterlimit:4;stroke-opacity:1;stroke-dasharray:none" />
        <rect
           style="fill:none;stroke:#ffffff;stroke-width:1;stroke-linecap:butt;stroke-miterlimit:4;stroke-opacity:1;stroke-dasharray:none"
           id="rect3205"
           width="70.866142"
           height="49.6063"
           x="74.684334"
           y="189.20135"
           rx="24.80315" />
        <rect
           transform="scale(1,-1)"
           rx="3.6073771"
           y="-425.92188"
           x="184.29703"
           height="199.19685"
           width="342.70081"
           id="rect3207"
           style="fill:#ffffff;stroke:#ffffff;stroke-width:1;stroke-linecap:butt;stroke-miterlimit:4;stroke-opacity:1;stroke-dasharray:none" />
        <rect
           rx="24.80315"
           y="189.20135"
           x="594.62036"
           height="49.6063"
           width="70.866142"
           id="rect3209"
           style="fill:none;stroke:#ffffff;stroke-width:1;stroke-linecap:butt;stroke-miterlimit:4;stroke-opacity:1;stroke-dasharray:none" />
        <rect
           transform="matrix(0.70710678,-0.70710678,0.70710678,0.70710678,0,0)"
           rx="7.0866141"
           y="724.84924"
           x="99.824631"
           height="14.173228"
           width="42.519684"
           id="rect3211"
           style="fill:#ffffff;stroke:#ffffff;stroke-width:1" />
        <rect
           style="fill:#ffffff;stroke:#ffffff;stroke-width:1"
           id="rect3213"
           width="42.519684"
           height="14.173228"
           x="137.40707"
           y="762.4317"
           rx="7.0866141"
           transform="matrix(0.70710678,-0.70710678,0.70710678,0.70710678,0,0)" />
        <path
           inkscape:connector-curvature="0"
           id="path3215"
           d="m 95.470779,262.3288 c -2.94449,0 -5.3125,2.36801 -5.3125,5.3125 l 0,15.9375 c 0,3.91382 -3.17993,7.09375 -7.09375,7.09375 l -15.937504,0 c -2.94449,0 -5.3125,2.39926 -5.3125,5.34375 l 0,23.03125 c 0,2.94449 2.36801,5.3125 5.3125,5.3125 l 15.937504,0 c 3.91382,0 7.09375,3.17993 7.09375,7.09375 l 0,15.9375 c 0,2.94449 2.36801,5.3125 5.3125,5.3125 l 23.031251,0 c 2.94449,0 5.3125,-2.36801 5.3125,-5.3125 l 0,-15.9375 c 0,-3.91382 3.17993,-7.09375 7.09375,-7.09375 l 15.93749,0 c 2.94449,0 5.3125,-2.36801 5.3125,-5.3125 l 0,-23.03125 c 0,-2.94449 -2.36801,-5.34375 -5.3125,-5.34375 l -15.93749,0 c -3.91382,0 -7.09375,-3.17993 -7.09375,-7.09375 l 0,-15.9375 c 0,-2.94449 -2.36801,-5.3125 -5.3125,-5.3125 l -23.031251,0 z"
           style="fill:#ffffff;stroke:#ffffff;stroke-width:1" />
        <path
           transform="matrix(0.83350814,0,0,0.85335354,541.08107,-662.06812)"
           d="m 70.710676,1136.2048 c 0,11.7158 -9.723604,21.2132 -21.718279,21.2132 -11.994674,0 -21.718279,-9.4974 -21.718279,-21.2132 0,-11.7157 9.723605,-21.2132 21.718279,-21.2132 11.994675,0 21.718279,9.4975 21.718279,21.2132 z"
           sodipodi:ry="21.213203"
           sodipodi:rx="21.718279"
           sodipodi:cy="1136.2048"
           sodipodi:cx="48.992397"
           id="path3217"
           style="fill:#ffffff;stroke:#ffffff;stroke-width:1.18571568;stroke-linecap:butt;stroke-miterlimit:4;stroke-opacity:1;stroke-dasharray:none"
           sodipodi:type="arc" />
        <path
           transform="matrix(0.83350814,0,0,0.85335354,636.75037,-662.06812)"
           d="m 70.710676,1136.2048 c 0,11.7158 -9.723604,21.2132 -21.718279,21.2132 -11.994674,0 -21.718279,-9.4974 -21.718279,-21.2132 0,-11.7157 9.723605,-21.2132 21.718279,-21.2132 11.994675,0 21.718279,9.4975 21.718279,21.2132 z"
           sodipodi:ry="21.213203"
           sodipodi:rx="21.718279"
           sodipodi:cy="1136.2048"
           sodipodi:cx="48.992397"
           id="path3220"
           style="fill:#ffffff;stroke:#ffffff;stroke-width:1.18571568;stroke-linecap:butt;stroke-miterlimit:4;stroke-opacity:1;stroke-dasharray:none"
           sodipodi:type="arc" />
        <path
           transform="matrix(0.83350814,0,0,0.85335354,588.91572,-624.86339)"
           d="m 70.710676,1136.2048 c 0,11.7158 -9.723604,21.2132 -21.718279,21.2132 -11.994674,0 -21.718279,-9.4974 -21.718279,-21.2132 0,-11.7157 9.723605,-21.2132 21.718279,-21.2132 11.994675,0 21.718279,9.4975 21.718279,21.2132 z"
           sodipodi:ry="21.213203"
           sodipodi:rx="21.718279"
           sodipodi:cy="1136.2048"
           sodipodi:cx="48.992397"
           id="path3222"
           style="fill:#ffffff;stroke:#ffffff;stroke-width:1.18571568;stroke-linecap:butt;stroke-miterlimit:4;stroke-opacity:1;stroke-dasharray:none"
           sodipodi:type="arc" />
        <path
           sodipodi:type="arc"
           style="fill:#ffffff;stroke:#ffffff;stroke-width:1.18571568;stroke-linecap:butt;stroke-miterlimit:4;stroke-opacity:1;stroke-dasharray:none"
           id="path3224"
           sodipodi:cx="48.992397"
           sodipodi:cy="1136.2048"
           sodipodi:rx="21.718279"
           sodipodi:ry="21.213203"
           d="m 70.710676,1136.2048 c 0,11.7158 -9.723604,21.2132 -21.718279,21.2132 -11.994674,0 -21.718279,-9.4974 -21.718279,-21.2132 0,-11.7157 9.723605,-21.2132 21.718279,-21.2132 11.994675,0 21.718279,9.4975 21.718279,21.2132 z"
           transform="matrix(0.83350814,0,0,0.85335354,588.91572,-699.27284)" />
        <path
           inkscape:connector-curvature="0"
           d="m 667.58593,307.5163 20,0 m -10,10 0,-20"
           style="fill:#ffffff;stroke:#000000;stroke-width:1px;stroke-linecap:butt;stroke-linejoin:miter;stroke-opacity:1"
           id="path3226" />
        <path
           inkscape:connector-curvature="0"
           id="path3228"
           style="fill:#ffffff;stroke:#000000;stroke-width:1px;stroke-linecap:butt;stroke-linejoin:miter;stroke-opacity:1"
           d="m 619.75128,270.31158 20,0 m -10,10 0,-20" />
        <path
           inkscape:connector-curvature="0"
           d="m 619.75128,344.72103 20,0 m -10,10 0,-20"
           style="fill:#ffffff;stroke:#000000;stroke-width:1px;stroke-linecap:butt;stroke-linejoin:miter;stroke-opacity:1"
           id="path3230" />
        <path
           id="path3232"
           style="fill:#ffffff;stroke:#000000;stroke-width:1px;stroke-linecap:butt;stroke-linejoin:miter;stroke-opacity:1"
           d="m 571.91663,307.5163 20,0 m -10,10 0,-20"
           inkscape:connector-curvature="0" />
        <path
           transform="matrix(0.94670238,0,0,1.014324,8.7112005,-163.96417)"
           d="m 151.52288,572.53973 c 0,17.5736 -15.26379,31.81981 -34.09264,31.81981 -18.828853,0 -34.092651,-14.24621 -34.092651,-31.81981 0,-17.57359 15.263798,-31.8198 34.092651,-31.8198 18.82885,0 34.09264,14.24621 34.09264,31.8198 z"
           sodipodi:ry="31.819805"
           sodipodi:rx="34.092648"
           sodipodi:cy="572.53973"
           sodipodi:cx="117.43024"
           id="path3234"
           style="fill:#ffffff;stroke:#ffffff;stroke-width:1.02048099;stroke-linecap:butt;stroke-linejoin:miter;stroke-miterlimit:4;stroke-opacity:1;stroke-dasharray:none;stroke-dashoffset:0"
           sodipodi:type="arc" />
        <path
           inkscape:connector-curvature="0"
           d="m 109.88269,416.77663 20,0 m -10,10 0,-20"
           style="fill:none;stroke:#000000;stroke-width:1px;stroke-linecap:butt;stroke-linejoin:miter;stroke-opacity:1"
           id="path3236" />
      </g>
      <text
         xml:space="preserve"
         style="font-size:22px;font-style:normal;font-weight:normal;line-height:125%;letter-spacing:0px;word-spacing:0px;fill:#ffffff;fill-opacity:1;stroke:none;font-family:Sans"
         x="319.35098"
         y="517.06628"
         id="text3238"
         sodipodi:linespacing="125%"><tspan
           sodipodi:role="line"
           id="tspan3240"
           x="319.35098"
           y="517.06628">PortablePi </tspan></text>
    </g>
  </g>
</svg>
