<?xml version="1.0" encoding="UTF-8" standalone="no"?>
<!-- Created with Inkscape (http://www.inkscape.org/) -->

<svg
   xmlns:dc="http://purl.org/dc/elements/1.1/"
   xmlns:cc="http://creativecommons.org/ns#"
   xmlns:rdf="http://www.w3.org/1999/02/22-rdf-syntax-ns#"
   xmlns:svg="http://www.w3.org/2000/svg"
   xmlns="http://www.w3.org/2000/svg"
   xmlns:sodipodi="http://sodipodi.sourceforge.net/DTD/sodipodi-0.dtd"
   xmlns:inkscape="http://www.inkscape.org/namespaces/inkscape"
   width="744.09448"
   height="1052.3622"
   id="svg2"
   version="1.1"
   inkscape:version="0.48.5 r10040"
   sodipodi:docname="front.svg">
  <defs
     id="defs4" />
  <sodipodi:namedview
     id="base"
     pagecolor="#ffffff"
     bordercolor="#666666"
     borderopacity="1.0"
     inkscape:pageopacity="0.0"
     inkscape:pageshadow="2"
     inkscape:zoom="1.4"
     inkscape:cx="474.83517"
     inkscape:cy="420.14462"
     inkscape:document-units="mm"
     inkscape:current-layer="layer1"
     showgrid="true"
     units="mm"
     inkscape:snap-bbox="true"
     inkscape:snap-global="true"
     inkscape:snap-bbox-midpoints="true"
     inkscape:snap-bbox-edge-midpoints="false"
     inkscape:bbox-paths="false"
     inkscape:window-width="1920"
     inkscape:window-height="1018"
     inkscape:window-x="-8"
     inkscape:window-y="-8"
     inkscape:window-maximized="1"
     inkscape:object-nodes="true">
    <inkscape:grid
       type="xygrid"
       id="grid2998"
       empspacing="5"
       visible="true"
       enabled="true"
       snapvisiblegridlinesonly="true" />
  </sodipodi:namedview>
  <metadata
     id="metadata7">
    <rdf:RDF>
      <cc:Work
         rdf:about="">
        <dc:format>image/svg+xml</dc:format>
        <dc:type
           rdf:resource="http://purl.org/dc/dcmitype/StillImage" />
        <dc:title />
      </cc:Work>
    </rdf:RDF>
  </metadata>
  <g
     inkscape:label="Layer 1"
     inkscape:groupmode="layer"
     id="layer1"
     transform="translate(0,-2.5390623e-6)">
    <rect
       style="fill:none;stroke:#000000;stroke-width:1;stroke-linecap:butt;stroke-miterlimit:4;stroke-opacity:1;stroke-dasharray:none"
       id="rect3773"
       width="673.22833"
       height="311.81104"
       x="36.309437"
       y="385.72043"
       rx="53.149605" />
    <rect
       rx="24.80315"
       y="399.89368"
       x="79.036507"
       height="49.6063"
       width="70.866142"
       id="rect3775"
       style="fill:none;stroke:#000000;stroke-width:1;stroke-linecap:butt;stroke-miterlimit:4;stroke-opacity:1;stroke-dasharray:none" />
    <g
       id="g3013"
       transform="translate(172.59054,-390.44488)">
      <rect
         transform="scale(1,-1)"
         rx="3.6073771"
         y="-1027.0591"
         x="16.058661"
         height="199.19685"
         width="342.70081"
         id="rect3771"
         style="fill:none;stroke:#000000;stroke-width:1;stroke-linecap:butt;stroke-miterlimit:4;stroke-opacity:1;stroke-dasharray:none" />
      <rect
         transform="scale(1,-1)"
         y="-1051.8622"
         x="0.50000489"
         height="238.11023"
         width="373.81891"
         id="rect3777"
         style="fill:none;stroke:#e6e6e6;stroke-width:1;stroke-linecap:butt;stroke-miterlimit:4;stroke-opacity:1;stroke-dasharray:none" />
    </g>
    <rect
       style="fill:none;stroke:#000000;stroke-width:1;stroke-linecap:butt;stroke-miterlimit:4;stroke-opacity:1;stroke-dasharray:none"
       id="rect3783"
       width="70.866142"
       height="49.6063"
       x="598.97253"
       y="399.89368"
       rx="24.80315" />
    <g
       id="g3153"
       transform="translate(-28.606516,44.564238)">
      <rect
         transform="matrix(0.70710678,-0.70710678,0.70710678,0.70710678,0,0)"
         rx="7.0866141"
         y="865.62488"
         x="5.6596394"
         height="14.173228"
         width="42.519684"
         id="rect3144"
         style="fill:none;stroke:#000000" />
      <rect
         style="fill:none;stroke:#000000;stroke-width:1"
         id="rect3151"
         width="42.519684"
         height="14.173228"
         x="43.242085"
         y="903.20734"
         rx="7.0866141"
         transform="matrix(0.70710678,-0.70710678,0.70710678,0.70710678,0,0)" />
    </g>
    <path
       style="fill:none;stroke:#000000;stroke-width:1"
       d="m 99.822949,473.02114 c -2.94449,0 -5.3125,2.36801 -5.3125,5.3125 l 0,15.9375 c 0,3.91382 -3.17993,7.09375 -7.09375,7.09375 l -15.9375,0 c -2.94449,0 -5.3125,2.39926 -5.3125,5.34375 l 0,23.03125 c 0,2.94449 2.36801,5.3125 5.3125,5.3125 l 15.9375,0 c 3.91382,0 7.09375,3.17993 7.09375,7.09375 l 0,15.9375 c 0,2.94449 2.36801,5.3125 5.3125,5.3125 l 23.031251,0 c 2.94449,0 5.3125,-2.36801 5.3125,-5.3125 l 0,-15.9375 c 0,-3.91382 3.17993,-7.09375 7.09375,-7.09375 l 15.9375,0 c 2.94449,0 5.3125,-2.36801 5.3125,-5.3125 l 0,-23.03125 c 0,-2.94449 -2.36801,-5.34375 -5.3125,-5.34375 l -15.9375,0 c -3.91382,0 -7.09375,-3.17993 -7.09375,-7.09375 l 0,-15.9375 c 0,-2.94449 -2.36801,-5.3125 -5.3125,-5.3125 l -23.031251,0 z"
       id="path3206"
       inkscape:connector-curvature="0" />
    <g
       id="g3017">
      <path
         transform="matrix(0.83350814,0,0,0.85335354,545.43324,-451.37578)"
         d="m 70.710676,1136.2048 c 0,11.7158 -9.723604,21.2132 -21.718279,21.2132 -11.994674,0 -21.718279,-9.4974 -21.718279,-21.2132 0,-11.7157 9.723605,-21.2132 21.718279,-21.2132 11.994675,0 21.718279,9.4975 21.718279,21.2132 z"
         sodipodi:ry="21.213203"
         sodipodi:rx="21.718279"
         sodipodi:cy="1136.2048"
         sodipodi:cx="48.992397"
         id="path3797"
         style="fill:none;stroke:#000000;stroke-width:1.18571568;stroke-linecap:butt;stroke-miterlimit:4;stroke-opacity:1;stroke-dasharray:none"
         sodipodi:type="arc" />
      <path
         transform="matrix(0.83350814,0,0,0.85335354,641.10254,-451.37578)"
         d="m 70.710676,1136.2048 c 0,11.7158 -9.723604,21.2132 -21.718279,21.2132 -11.994674,0 -21.718279,-9.4974 -21.718279,-21.2132 0,-11.7157 9.723605,-21.2132 21.718279,-21.2132 11.994675,0 21.718279,9.4975 21.718279,21.2132 z"
         sodipodi:ry="21.213203"
         sodipodi:rx="21.718279"
         sodipodi:cy="1136.2048"
         sodipodi:cx="48.992397"
         id="path3797-4"
         style="fill:none;stroke:#000000;stroke-width:1.18571568;stroke-linecap:butt;stroke-miterlimit:4;stroke-opacity:1;stroke-dasharray:none"
         sodipodi:type="arc" />
      <path
         transform="matrix(0.83350814,0,0,0.85335354,593.26789,-414.17105)"
         d="m 70.710676,1136.2048 c 0,11.7158 -9.723604,21.2132 -21.718279,21.2132 -11.994674,0 -21.718279,-9.4974 -21.718279,-21.2132 0,-11.7157 9.723605,-21.2132 21.718279,-21.2132 11.994675,0 21.718279,9.4975 21.718279,21.2132 z"
         sodipodi:ry="21.213203"
         sodipodi:rx="21.718279"
         sodipodi:cy="1136.2048"
         sodipodi:cx="48.992397"
         id="path3797-48"
         style="fill:none;stroke:#000000;stroke-width:1.18571568;stroke-linecap:butt;stroke-miterlimit:4;stroke-opacity:1;stroke-dasharray:none"
         sodipodi:type="arc" />
      <path
         sodipodi:type="arc"
         style="fill:none;stroke:#000000;stroke-width:1.18571568;stroke-linecap:butt;stroke-miterlimit:4;stroke-opacity:1;stroke-dasharray:none"
         id="path3136"
         sodipodi:cx="48.992397"
         sodipodi:cy="1136.2048"
         sodipodi:rx="21.718279"
         sodipodi:ry="21.213203"
         d="m 70.710676,1136.2048 c 0,11.7158 -9.723604,21.2132 -21.718279,21.2132 -11.994674,0 -21.718279,-9.4974 -21.718279,-21.2132 0,-11.7157 9.723605,-21.2132 21.718279,-21.2132 11.994675,0 21.718279,9.4975 21.718279,21.2132 z"
         transform="matrix(0.83350814,0,0,0.85335354,593.26789,-488.5805)" />
      <path
         inkscape:connector-curvature="0"
         d="m 671.9381,518.20864 20,0 m -10,10 0,-20"
         style="fill:none;stroke:#000000;stroke-width:1px;stroke-linecap:butt;stroke-linejoin:miter;stroke-opacity:1"
         id="path3002" />
      <path
         inkscape:connector-curvature="0"
         id="path3009"
         style="fill:none;stroke:#000000;stroke-width:1px;stroke-linecap:butt;stroke-linejoin:miter;stroke-opacity:1"
         d="m 624.10345,481.00392 20,0 m -10,10 0,-20" />
      <path
         inkscape:connector-curvature="0"
         d="m 624.10345,555.41337 20,0 m -10,10 0,-20"
         style="fill:none;stroke:#000000;stroke-width:1px;stroke-linecap:butt;stroke-linejoin:miter;stroke-opacity:1"
         id="path3013" />
      <path
         id="path3015"
         style="fill:none;stroke:#000000;stroke-width:1px;stroke-linecap:butt;stroke-linejoin:miter;stroke-opacity:1"
         d="m 576.2688,518.20864 20,0 m -10,10 0,-20"
         inkscape:connector-curvature="0" />
    </g>
    <g
       id="g3029">
      <path
         transform="matrix(0.94670238,0,0,1.014324,13.063375,46.728174)"
         d="m 151.52288,572.53973 c 0,17.5736 -15.26379,31.81981 -34.09264,31.81981 -18.828853,0 -34.092651,-14.24621 -34.092651,-31.81981 0,-17.57359 15.263798,-31.8198 34.092651,-31.8198 18.82885,0 34.09264,14.24621 34.09264,31.8198 z"
         sodipodi:ry="31.819805"
         sodipodi:rx="34.092648"
         sodipodi:cy="572.53973"
         sodipodi:cx="117.43024"
         id="path3219"
         style="fill:none;stroke:#000000;stroke-width:1.02048099;stroke-linecap:butt;stroke-linejoin:miter;stroke-miterlimit:4;stroke-opacity:1;stroke-dasharray:none;stroke-dashoffset:0"
         sodipodi:type="arc" />
      <path
         inkscape:connector-curvature="0"
         d="m 114.23486,627.46897 20,0 m -10,10 0,-20"
         style="fill:none;stroke:#000000;stroke-width:1px;stroke-linecap:butt;stroke-linejoin:miter;stroke-opacity:1"
         id="path3027" />
    </g>
  </g>
</svg>
