<?xml version="1.0" encoding="UTF-8" standalone="no"?>
<!-- Created with Inkscape (http://www.inkscape.org/) -->

<svg
   xmlns:dc="http://purl.org/dc/elements/1.1/"
   xmlns:cc="http://creativecommons.org/ns#"
   xmlns:rdf="http://www.w3.org/1999/02/22-rdf-syntax-ns#"
   xmlns:svg="http://www.w3.org/2000/svg"
   xmlns="http://www.w3.org/2000/svg"
   xmlns:sodipodi="http://sodipodi.sourceforge.net/DTD/sodipodi-0.dtd"
   xmlns:inkscape="http://www.inkscape.org/namespaces/inkscape"
   width="744.09448"
   height="1052.3622"
   id="svg2"
   version="1.1"
   inkscape:version="0.48.4 r9939"
   sodipodi:docname="front.svg">
  <defs
     id="defs4" />
  <sodipodi:namedview
     id="base"
     pagecolor="#ffffff"
     bordercolor="#666666"
     borderopacity="1.0"
     inkscape:pageopacity="0.0"
     inkscape:pageshadow="2"
     inkscape:zoom="0.49497475"
     inkscape:cx="52.557071"
     inkscape:cy="403.69701"
     inkscape:document-units="mm"
     inkscape:current-layer="layer1"
     showgrid="false"
     units="mm"
     inkscape:snap-bbox="true"
     inkscape:snap-global="true"
     inkscape:snap-bbox-midpoints="true"
     inkscape:snap-bbox-edge-midpoints="false"
     inkscape:bbox-paths="false"
     inkscape:window-width="1920"
     inkscape:window-height="1025"
     inkscape:window-x="-2"
     inkscape:window-y="-3"
     inkscape:window-maximized="1"
     inkscape:object-nodes="true" />
  <metadata
     id="metadata7">
    <rdf:RDF>
      <cc:Work
         rdf:about="">
        <dc:format>image/svg+xml</dc:format>
        <dc:type
           rdf:resource="http://purl.org/dc/dcmitype/StillImage" />
        <dc:title />
      </cc:Work>
    </rdf:RDF>
  </metadata>
  <g
     inkscape:label="Layer 1"
     inkscape:groupmode="layer"
     id="layer1"
     transform="translate(0,-2.5390623e-6)">
    <rect
       style="fill:none;stroke:#000000;stroke-width:1;stroke-linecap:butt;stroke-miterlimit:4;stroke-opacity:1;stroke-dasharray:none"
       id="rect3773"
       width="673.22833"
       height="311.81104"
       x="36.309437"
       y="385.72043"
       rx="53.149605" />
    <rect
       rx="24.80315"
       y="399.89368"
       x="79.036507"
       height="49.6063"
       width="70.866142"
       id="rect3775"
       style="fill:none;stroke:#000000;stroke-width:1;stroke-linecap:butt;stroke-miterlimit:4;stroke-opacity:1;stroke-dasharray:none" />
    <g
       id="g3787"
       transform="translate(-4.0169334,-284.86775)">
      <rect
         transform="scale(1,-1)"
         rx="3.5433071"
         y="-918.26538"
         x="208.63345"
         height="194.8819"
         width="336.61417"
         id="rect3771"
         style="fill:none;stroke:#000000;stroke-width:0.99999994;stroke-linecap:butt;stroke-miterlimit:4;stroke-opacity:1;stroke-dasharray:none" />
      <rect
         transform="scale(1,-1)"
         y="-945.54883"
         x="190.03108"
         height="238.11023"
         width="373.81891"
         id="rect3777"
         style="fill:none;stroke:#e6e6e6;stroke-width:1;stroke-linecap:butt;stroke-miterlimit:4;stroke-opacity:1;stroke-dasharray:none" />
    </g>
    <rect
       style="fill:none;stroke:#000000;stroke-width:1;stroke-linecap:butt;stroke-miterlimit:4;stroke-opacity:1;stroke-dasharray:none"
       id="rect3783"
       width="70.866142"
       height="49.6063"
       x="598.97253"
       y="399.89368"
       rx="24.80315" />
    <g
       id="g3138"
       transform="translate(0.73730932,15.944879)">
      <path
         transform="matrix(0.83350814,0,0,0.85335354,544.69593,-467.32066)"
         d="m 70.710676,1136.2048 c 0,11.7158 -9.723604,21.2132 -21.718279,21.2132 -11.994674,0 -21.718279,-9.4974 -21.718279,-21.2132 0,-11.7157 9.723605,-21.2132 21.718279,-21.2132 11.994675,0 21.718279,9.4975 21.718279,21.2132 z"
         sodipodi:ry="21.213203"
         sodipodi:rx="21.718279"
         sodipodi:cy="1136.2048"
         sodipodi:cx="48.992397"
         id="path3797"
         style="fill:none;stroke:#000000;stroke-width:1.18571568;stroke-linecap:butt;stroke-miterlimit:4;stroke-opacity:1;stroke-dasharray:none"
         sodipodi:type="arc" />
      <path
         transform="matrix(0.83350814,0,0,0.85335354,640.36523,-467.32066)"
         d="m 70.710676,1136.2048 c 0,11.7158 -9.723604,21.2132 -21.718279,21.2132 -11.994674,0 -21.718279,-9.4974 -21.718279,-21.2132 0,-11.7157 9.723605,-21.2132 21.718279,-21.2132 11.994675,0 21.718279,9.4975 21.718279,21.2132 z"
         sodipodi:ry="21.213203"
         sodipodi:rx="21.718279"
         sodipodi:cy="1136.2048"
         sodipodi:cx="48.992397"
         id="path3797-4"
         style="fill:none;stroke:#000000;stroke-width:1.18571568;stroke-linecap:butt;stroke-miterlimit:4;stroke-opacity:1;stroke-dasharray:none"
         sodipodi:type="arc" />
      <path
         transform="matrix(0.83350814,0,0,0.85335354,592.53058,-430.11593)"
         d="m 70.710676,1136.2048 c 0,11.7158 -9.723604,21.2132 -21.718279,21.2132 -11.994674,0 -21.718279,-9.4974 -21.718279,-21.2132 0,-11.7157 9.723605,-21.2132 21.718279,-21.2132 11.994675,0 21.718279,9.4975 21.718279,21.2132 z"
         sodipodi:ry="21.213203"
         sodipodi:rx="21.718279"
         sodipodi:cy="1136.2048"
         sodipodi:cx="48.992397"
         id="path3797-48"
         style="fill:none;stroke:#000000;stroke-width:1.18571568;stroke-linecap:butt;stroke-miterlimit:4;stroke-opacity:1;stroke-dasharray:none"
         sodipodi:type="arc" />
      <path
         sodipodi:type="arc"
         style="fill:none;stroke:#000000;stroke-width:1.18571568;stroke-linecap:butt;stroke-miterlimit:4;stroke-opacity:1;stroke-dasharray:none"
         id="path3136"
         sodipodi:cx="48.992397"
         sodipodi:cy="1136.2048"
         sodipodi:rx="21.718279"
         sodipodi:ry="21.213203"
         d="m 70.710676,1136.2048 c 0,11.7158 -9.723604,21.2132 -21.718279,21.2132 -11.994674,0 -21.718279,-9.4974 -21.718279,-21.2132 0,-11.7157 9.723605,-21.2132 21.718279,-21.2132 11.994675,0 21.718279,9.4975 21.718279,21.2132 z"
         transform="matrix(0.83350814,0,0,0.85335354,592.53058,-504.52538)" />
    </g>
    <g
       id="g3153"
       transform="translate(-28.606516,44.564238)">
      <rect
         transform="matrix(0.70710678,-0.70710678,0.70710678,0.70710678,0,0)"
         rx="7.0866141"
         y="865.62488"
         x="5.6596394"
         height="14.173228"
         width="42.519684"
         id="rect3144"
         style="fill:none;stroke:#000000" />
      <rect
         style="fill:none;stroke:#000000;stroke-width:1"
         id="rect3151"
         width="42.519684"
         height="14.173228"
         x="43.242085"
         y="903.20734"
         rx="7.0866141"
         transform="matrix(0.70710678,-0.70710678,0.70710678,0.70710678,0,0)" />
    </g>
    <path
       style="fill:none;stroke:#000000;stroke-width:1"
       d="m 99.822949,473.02114 c -2.94449,0 -5.3125,2.36801 -5.3125,5.3125 l 0,15.9375 c 0,3.91382 -3.17993,7.09375 -7.09375,7.09375 l -15.9375,0 c -2.94449,0 -5.3125,2.39926 -5.3125,5.34375 l 0,23.03125 c 0,2.94449 2.36801,5.3125 5.3125,5.3125 l 15.9375,0 c 3.91382,0 7.09375,3.17993 7.09375,7.09375 l 0,15.9375 c 0,2.94449 2.36801,5.3125 5.3125,5.3125 l 23.031251,0 c 2.94449,0 5.3125,-2.36801 5.3125,-5.3125 l 0,-15.9375 c 0,-3.91382 3.17993,-7.09375 7.09375,-7.09375 l 15.9375,0 c 2.94449,0 5.3125,-2.36801 5.3125,-5.3125 l 0,-23.03125 c 0,-2.94449 -2.36801,-5.34375 -5.3125,-5.34375 l -15.9375,0 c -3.91382,0 -7.09375,-3.17993 -7.09375,-7.09375 l 0,-15.9375 c 0,-2.94449 -2.36801,-5.3125 -5.3125,-5.3125 l -23.031251,0 z"
       id="path3206"
       inkscape:connector-curvature="0" />
    <path
       sodipodi:type="arc"
       style="fill:none;stroke:#000000;stroke-width:1.02048099;stroke-linecap:butt;stroke-linejoin:miter;stroke-miterlimit:4;stroke-opacity:1;stroke-dasharray:none;stroke-dashoffset:0"
       id="path3219"
       sodipodi:cx="117.43024"
       sodipodi:cy="572.53973"
       sodipodi:rx="34.092648"
       sodipodi:ry="31.819805"
       d="m 151.52288,572.53973 a 34.092648,31.819805 0 1 1 -68.185291,0 34.092648,31.819805 0 1 1 68.185291,0 z"
       transform="matrix(0.94670238,0,0,1.014324,4.9467712,45.713344)" />
  </g>
</svg>
