<?xml version="1.0" encoding="UTF-8" standalone="no"?>
<!-- Created with Inkscape (http://www.inkscape.org/) -->

<svg
   xmlns:dc="http://purl.org/dc/elements/1.1/"
   xmlns:cc="http://creativecommons.org/ns#"
   xmlns:rdf="http://www.w3.org/1999/02/22-rdf-syntax-ns#"
   xmlns:svg="http://www.w3.org/2000/svg"
   xmlns="http://www.w3.org/2000/svg"
   xmlns:sodipodi="http://sodipodi.sourceforge.net/DTD/sodipodi-0.dtd"
   xmlns:inkscape="http://www.inkscape.org/namespaces/inkscape"
   width="744.09448"
   height="1052.3622"
   id="svg2"
   version="1.1"
   inkscape:version="0.48.4 r9939"
   sodipodi:docname="front_export.svg">
  <defs
     id="defs4" />
  <sodipodi:namedview
     id="base"
     pagecolor="#ffffff"
     bordercolor="#666666"
     borderopacity="1.0"
     inkscape:pageopacity="0.0"
     inkscape:pageshadow="2"
     inkscape:zoom="1"
     inkscape:cx="231.74357"
     inkscape:cy="663.05496"
     inkscape:document-units="mm"
     inkscape:current-layer="layer1"
     showgrid="true"
     units="mm"
     inkscape:snap-bbox="false"
     inkscape:snap-global="true"
     inkscape:snap-bbox-midpoints="false"
     inkscape:snap-bbox-edge-midpoints="false"
     inkscape:bbox-paths="true"
     inkscape:window-width="1920"
     inkscape:window-height="1025"
     inkscape:window-x="-2"
     inkscape:window-y="-3"
     inkscape:window-maximized="1"
     inkscape:object-nodes="false"
     inkscape:bbox-nodes="true"
     inkscape:snap-smooth-nodes="false"
     inkscape:snap-nodes="true"
     inkscape:object-paths="false"
     inkscape:snap-intersection-paths="false"
     inkscape:snap-object-midpoints="true">
    <inkscape:grid
       type="xygrid"
       id="grid3044"
       empspacing="5"
       visible="true"
       enabled="true"
       snapvisiblegridlinesonly="true"
       units="mm"
       spacingx="1mm"
       spacingy="1mm" />
  </sodipodi:namedview>
  <metadata
     id="metadata7">
    <rdf:RDF>
      <cc:Work
         rdf:about="">
        <dc:format>image/svg+xml</dc:format>
        <dc:type
           rdf:resource="http://purl.org/dc/dcmitype/StillImage" />
        <dc:title />
      </cc:Work>
    </rdf:RDF>
  </metadata>
  <g
     inkscape:label="Layer 1"
     inkscape:groupmode="layer"
     id="layer1"
     transform="translate(0,-2.5390623e-6)">
    <g
       id="g3787"
       transform="translate(-4.8932991,-291.45435)" />
    <g
       id="g3138"
       transform="translate(-4.0433029,11.515751)" />
    <g
       id="g3153"
       transform="translate(-33.387128,38.523374)" />
    <path
       id="rect3056"
       transform="translate(0,2.5390623e-6)"
       style="fill:none;stroke:#000000;stroke-width:1;stroke-linecap:butt;stroke-linejoin:miter;stroke-miterlimit:4;stroke-opacity:1;stroke-dashoffset:0"
       d="m 329.52756,379.13385 7.08661,0 0,10.62992 -7.08661,0 z m -53.1496,0 7.08661,0 0,10.62992 -7.08661,0 z m 60.23621,0 35.43307,0 0,10.62992 -35.43307,0 z m -53.1496,0 46.06299,0 0,10.62992 -46.06299,0 z m -53.14961,0 46.06299,0 0,10.62991 -46.06299,0 z m -82.26449,241.27942 c 0,17.82532 -14.45027,32.27559 -32.27558,32.27559 -17.825323,0 -32.275597,-14.45027 -32.275597,-32.27559 0,-17.82532 14.450274,-32.27559 32.275597,-32.27559 17.82531,0 32.27558,14.45027 32.27558,32.27559 z M 99.479572,466.98028 c -2.944485,0 -5.312495,2.36801 -5.312495,5.3125 l 0,15.9375 c 0,3.91382 -3.17993,7.09375 -7.09375,7.09375 l -15.9375,0 c -2.94449,0 -5.3125,2.39926 -5.3125,5.34375 l 0,23.03125 c 0,2.94449 2.36801,5.3125 5.3125,5.3125 l 15.9375,0 c 3.91382,0 7.09375,3.17993 7.09375,7.09375 l 0,15.9375 c 0,2.94449 2.36801,5.3125 5.312495,5.3125 l 23.031248,0 c 2.94449,0 5.3125,-2.36801 5.3125,-5.3125 l 0,-15.9375 c 0,-3.91382 3.17993,-7.09375 7.09375,-7.09375 l 15.9375,0 c 2.94449,0 5.3125,-2.36801 5.3125,-5.3125 l 0,-23.03125 c 0,-2.94449 -2.36801,-5.34375 -5.3125,-5.34375 l -15.9375,0 c -3.91382,0 -7.09375,-3.17993 -7.09375,-7.09375 l 0,-15.9375 c 0,-2.94449 -2.36801,-5.3125 -5.3125,-5.3125 l -23.031248,0 z m 541.385098,174.61936 20.04397,-20.04397 c 2.77609,-2.77609 7.2459,-2.77609 10.02198,0 2.77609,2.77608 2.77609,7.24589 0,10.02198 l -20.04397,20.04397 c -2.77609,2.77609 -7.2459,2.77609 -10.02198,0 -2.77609,-2.77608 -2.77609,-7.24589 0,-10.02198 z m -53.14961,-10e-6 20.04397,-20.04397 c 2.77609,-2.77609 7.24589,-2.77609 10.02198,0 2.77609,2.77609 2.77609,7.2459 0,10.02199 l -20.04397,20.04397 c -2.77609,2.77609 -7.24589,2.77609 -10.02199,-10e-6 -2.77608,-2.77608 -2.77608,-7.24589 10e-6,-10.02198 z M 647.4252,476.57476 c 0,9.99772 -8.1047,18.10236 -18.10236,18.10236 -9.99766,0 -18.10236,-8.10464 -18.10236,-18.10236 0,-9.99764 8.1047,-18.10236 18.10236,-18.10236 9.99766,0 18.10236,8.10472 18.10236,18.10236 z m 0,74.40945 c 0,9.99772 -8.1047,18.10236 -18.10236,18.10236 -9.99766,0 -18.10236,-8.10464 -18.10236,-18.10236 0,-9.99764 8.1047,-18.10236 18.10236,-18.10236 9.99766,0 18.10236,8.10472 18.10236,18.10236 z m 47.83465,-37.20473 c 0,9.99772 -8.1047,18.10236 -18.10236,18.10236 -9.99766,0 -18.10236,-8.10464 -18.10236,-18.10236 0,-9.99764 8.1047,-18.10236 18.10236,-18.10236 9.99766,0 18.10236,8.10472 18.10236,18.10236 z m -95.6693,0 c 0,9.99772 -8.1047,18.10236 -18.10236,18.10236 -9.99766,0 -18.10236,-8.10464 -18.10236,-18.10236 0,-9.99764 8.1047,-18.10236 18.10236,-18.10236 9.99766,0 18.10236,8.10472 18.10236,18.10236 z m 45.29134,-116.92911 21.25984,0 c 13.74094,0 24.80315,11.06221 24.80315,24.80315 0,13.74095 -11.06221,24.80315 -24.80315,24.80315 l -21.25984,0 c -13.74095,0 -24.80315,-11.0622 -24.80315,-24.80315 0,-13.74094 11.0622,-24.80315 24.80315,-24.80315 z m -459.74411,257.24411 373.81891,0 0,-238.11023 -373.81891,0 z m 22.14568,-27.28345 329.52755,0 c 1.96299,0 3.54331,-1.58031 3.54331,-3.54331 l 0,-187.79528 c 0,-1.96299 -1.58032,-3.54331 -3.54331,-3.54331 l -329.52755,0 c -1.96299,0 -3.54331,1.58032 -3.54331,3.54331 l 0,187.79528 c 0,1.963 1.58032,3.54331 3.54331,3.54331 z M 77.952755,396.85037 l 21.259842,0 c 13.740943,0 24.803153,11.06221 24.803153,24.80315 0,13.74095 -11.06221,24.80315 -24.803153,24.80315 l -21.259842,0 c -13.740945,0 -24.80315,-11.0622 -24.80315,-24.80315 0,-13.74094 11.062205,-24.80315 24.80315,-24.80315 z m 10.629921,-17.71652 566.929124,0 c 29.44488,0 53.1496,23.70472 53.1496,53.1496 l 0,205.51183 c 0,29.44488 -23.70472,53.14961 -53.1496,53.14961 l -566.929124,0 c -29.444881,0 -53.149605,-23.70473 -53.149605,-53.14961 l 0,-205.51183 c 0,-29.44488 23.704724,-53.1496 53.149605,-53.1496 z M 88.59375,389.75 c -23.732762,0 -42.53125,18.79849 -42.53125,42.53125 l 0,205.5 c 0,23.73276 18.798488,42.53125 42.53125,42.53125 l 566.90625,0 c 23.73276,0 42.53125,-18.79849 42.53125,-42.53125 l 0,-205.5 C 698.03125,408.54849 679.23276,389.75 655.5,389.75 l -566.90625,0 z" />
  </g>
</svg>
